<!-- icon666.com - MILLIONS vector ICONS FREE --><svg id="Layer_1" enable-background="new 0 0 90 90" viewBox="0 0 90 90" xmlns="http://www.w3.org/2000/svg" xmlns:xlink="http://www.w3.org/1999/xlink"><linearGradient id="lg1"><stop offset="0" stop-color="#5adbf9"></stop><stop offset="1" stop-color="#f761ec"></stop></linearGradient><linearGradient id="SVGID_1_" gradientUnits="userSpaceOnUse" x1="25" x2="35" xlink:href="#lg1" y1="50" y2="50"></linearGradient><linearGradient id="SVGID_2_" gradientUnits="userSpaceOnUse" x1="60" x2="70" xlink:href="#lg1" y1="50" y2="50"></linearGradient><linearGradient id="SVGID_3_" gradientUnits="userSpaceOnUse" x1="10" x2="81" xlink:href="#lg1" y1="37.5" y2="37.5"></linearGradient><linearGradient id="SVGID_4_" gradientUnits="userSpaceOnUse" x1="46" x2="78" xlink:href="#lg1" y1="65" y2="65"></linearGradient><linearGradient id="SVGID_5_" gradientUnits="userSpaceOnUse" x1="33" x2="56" xlink:href="#lg1" y1="75" y2="75"></linearGradient><linearGradient id="SVGID_6_" gradientUnits="userSpaceOnUse" x1="9" x2="32" xlink:href="#lg1" y1="69" y2="69"></linearGradient><linearGradient id="SVGID_7_" gradientUnits="userSpaceOnUse" x1="9" x2="81" xlink:href="#lg1" y1="51.5" y2="51.5"></linearGradient><g><g><g><circle cx="30" cy="50" fill="url(#SVGID_1_)" r="5"></circle></g><g><circle cx="65" cy="50" fill="url(#SVGID_2_)" r="5"></circle></g><g><path d="m77.051 38.258c-2.301-1.271-5.331-2.518-8.324-2.496-.007-.004-.012-.01-.019-.014l-10.632-6.013c-6.675-3.864-14.865-4.293-21.908-1.152l-7.658 3.417h-8.625c-.015-.045-.023-.091-.041-.135l-.782-1.865h.938c1.104 0 2-.896 2-2s-.896-2-2-2h-8c-1.104 0-2 .896-2 2s.896 2 2 2h2.725l.839 2h-1.564v10.064c0 3.831 3.105 6.936 6.936 6.936h.123c.5-4.491 4.319-8 8.941-8s8.441 3.509 8.941 8h17.118c.5-4.491 4.319-8 8.941-8s8.441 3.509 8.941 8h7.059v-3.984c0-2.801-1.497-5.404-3.949-6.758zm-29.051-.378v-3.88c0-1.104-.896-2-2-2s-2 .896-2 2v3.574c-3.57-.407-7.121-1.19-10.356-2.545-.339-.142-.664-.315-.981-.501l5.135-2.291c5.875-2.622 12.707-2.262 18.292.97l6.463 3.654c-3.952.696-9.142 1.232-14.553 1.019z" fill="url(#SVGID_3_)"></path></g><g><g><path d="m76 67h-28c-1.104 0-2-.896-2-2s.896-2 2-2h28c1.104 0 2 .896 2 2s-.896 2-2 2z" fill="url(#SVGID_4_)"></path></g></g><g><g><path d="m54 77h-19c-1.104 0-2-.896-2-2s.896-2 2-2h19c1.104 0 2 .896 2 2s-.896 2-2 2z" fill="url(#SVGID_5_)"></path></g></g><g><g><path d="m30 71h-19c-1.104 0-2-.896-2-2s.896-2 2-2h19c1.104 0 2 .896 2 2s-.896 2-2 2z" fill="url(#SVGID_6_)"></path></g></g></g><g><g><circle cx="30" cy="50" fill="url(#SVGID_7_)" r="5"></circle></g><g><circle cx="65" cy="50" fill="url(#SVGID_7_)" r="5"></circle></g><g><path d="m77.051 38.258c-2.301-1.271-5.331-2.518-8.324-2.496-.007-.004-.012-.01-.019-.014l-10.632-6.013c-6.675-3.864-14.865-4.293-21.908-1.152l-7.658 3.417h-8.625c-.015-.045-.023-.091-.041-.135l-.782-1.865h.938c1.104 0 2-.896 2-2s-.896-2-2-2h-8c-1.104 0-2 .896-2 2s.896 2 2 2h2.725l.839 2h-1.564v10.064c0 3.831 3.105 6.936 6.936 6.936h.123c.5-4.491 4.319-8 8.941-8s8.441 3.509 8.941 8h17.118c.5-4.491 4.319-8 8.941-8s8.441 3.509 8.941 8h7.059v-3.984c0-2.801-1.497-5.404-3.949-6.758zm-29.051-.378v-3.88c0-1.104-.896-2-2-2s-2 .896-2 2v3.574c-3.57-.407-7.121-1.19-10.356-2.545-.339-.142-.664-.315-.981-.501l5.135-2.291c5.875-2.622 12.707-2.262 18.292.97l6.463 3.654c-3.952.696-9.142 1.232-14.553 1.019z" fill="url(#SVGID_7_)"></path></g><g><g><path d="m76 67h-28c-1.104 0-2-.896-2-2s.896-2 2-2h28c1.104 0 2 .896 2 2s-.896 2-2 2z" fill="url(#SVGID_7_)"></path></g></g><g><g><path d="m54 77h-19c-1.104 0-2-.896-2-2s.896-2 2-2h19c1.104 0 2 .896 2 2s-.896 2-2 2z" fill="url(#SVGID_7_)"></path></g></g><g><g><path d="m30 71h-19c-1.104 0-2-.896-2-2s.896-2 2-2h19c1.104 0 2 .896 2 2s-.896 2-2 2z" fill="url(#SVGID_7_)"></path></g></g></g></g></svg>